<svg viewBox="0 0 500 500" xmlns="http://www.w3.org/2000/svg">
  <defs></defs>
  <path style="fill: rgb(99, 212, 163);" d="M 33.348 334.896 L 204.345 334.896 C 217.851 334.896 228.801 345.845 228.801 359.352 L 228.801 359.352 C 228.801 372.858 217.852 383.808 204.345 383.808 L 59.238 383.808"></path>
  <path style="fill: rgb(7, 14, 47);" d="M 204.345 398.131 L 59.238 398.131 C 51.329 398.131 44.916 391.719 44.916 383.809 C 44.916 375.899 51.33 369.487 59.238 369.487 L 204.344 369.487 C 209.931 369.487 214.477 364.941 214.477 359.354 C 214.477 353.767 209.931 349.219 204.344 349.219 L 33.348 349.219 C 25.438 349.219 19.025 342.807 19.025 334.897 C 19.025 326.987 25.439 320.575 33.348 320.575 L 204.345 320.575 C 225.729 320.575 243.124 337.971 243.124 359.353 C 243.124 380.735 225.729 398.131 204.345 398.131 Z"></path>
  <path style="fill: rgb(212, 99, 102);" d="M 18.511 228.919 L 122.824 228.919 C 136.33 228.919 147.28 239.868 147.28 253.375 L 147.28 253.375 C 147.28 266.88 136.331 277.831 122.824 277.831 L 19.211 277.831"></path>
  <path style="fill: rgb(7, 14, 47);" d="M 122.824 292.153 L 19.211 292.153 C 11.302 292.153 4.889 285.741 4.889 277.831 C 4.889 269.92 11.303 263.508 19.211 263.508 L 122.824 263.508 C 128.411 263.508 132.957 258.962 132.957 253.376 C 132.957 247.789 128.411 243.243 122.824 243.243 L 18.511 243.243 C 10.602 243.243 4.188 236.831 4.188 228.92 C 4.188 221.01 10.603 214.598 18.511 214.598 L 122.824 214.598 C 144.208 214.598 161.602 231.995 161.602 253.377 C 161.602 274.758 144.208 292.153 122.824 292.153 Z"></path>
  <path style="fill: rgb(99, 212, 163);" d="M 54.722 122.941 L 204.345 122.941 C 217.851 122.941 228.801 133.89 228.801 147.397 L 228.801 147.397 C 228.801 160.903 217.852 171.853 204.345 171.853 L 30.852 171.853"></path>
  <path style="fill: rgb(7, 14, 47);" d="M 204.345 186.176 L 30.852 186.176 C 22.943 186.176 16.53 179.764 16.53 171.854 C 16.53 163.944 22.944 157.532 30.852 157.532 L 204.345 157.532 C 209.932 157.532 214.478 152.986 214.478 147.397 C 214.478 141.808 209.932 137.264 204.345 137.264 L 54.722 137.264 C 46.812 137.264 40.399 130.852 40.399 122.942 C 40.399 115.032 46.813 108.62 54.722 108.62 L 204.345 108.62 C 225.729 108.62 243.124 126.016 243.124 147.398 C 243.124 168.78 225.729 186.176 204.345 186.176 Z"></path>
  <path style="fill: rgb(99, 186, 212);" d="M 440.598 383.809 L 377.173 383.809 C 363.667 383.809 352.717 372.86 352.717 359.353 L 352.717 359.353 C 352.717 345.847 363.666 334.897 377.173 334.897 L 466.651 334.897"></path>
  <path style="fill: rgb(7, 14, 47);" d="M 440.598 398.131 L 377.175 398.131 C 355.791 398.131 338.397 380.735 338.397 359.353 C 338.397 337.969 355.793 320.574 377.175 320.574 L 466.652 320.574 C 474.562 320.574 480.975 326.986 480.975 334.896 C 480.975 342.806 474.561 349.218 466.652 349.218 L 377.175 349.218 C 371.588 349.218 367.042 353.764 367.042 359.351 C 367.042 364.938 371.588 369.486 377.175 369.486 L 440.598 369.486 C 448.507 369.486 454.92 375.898 454.92 383.808 C 454.92 391.719 448.507 398.131 440.598 398.131 Z"></path>
  <path style="fill: rgb(212, 99, 102);" d="M 469.146 171.854 L 377.173 171.854 C 363.667 171.854 352.717 160.905 352.717 147.398 L 352.717 147.398 C 352.717 133.892 363.666 122.942 377.173 122.942 L 445.276 122.942"></path>
  <path style="fill: rgb(7, 14, 47);" d="M 469.147 186.176 L 377.174 186.176 C 355.79 186.176 338.396 168.78 338.396 147.397 C 338.396 126.015 355.792 108.619 377.174 108.619 L 445.277 108.619 C 453.186 108.619 459.599 115.031 459.599 122.941 C 459.599 130.851 453.185 137.263 445.277 137.263 L 377.174 137.263 C 371.587 137.263 367.041 141.809 367.041 147.396 C 367.041 152.983 371.587 157.531 377.174 157.531 L 469.147 157.531 C 477.056 157.531 483.469 163.943 483.469 171.853 C 483.469 179.763 477.056 186.176 469.147 186.176 Z"></path>
  <path style="fill: rgb(99, 186, 212);" d="M 480.787 277.832 L 295.654 277.832 C 282.148 277.832 271.198 266.882 271.198 253.376 L 271.198 253.376 C 271.198 239.87 282.147 228.92 295.654 228.92 L 481.488 228.92"></path>
  <g style="" transform="matrix(0.976561, 0, 0, 0.976561, 0, 0)">
    <path style="fill: rgb(7, 14, 47);" d="M492.328,299.165H302.75c-21.897,0-39.709-17.814-39.709-39.709s17.814-39.709,39.709-39.709
		h190.295c8.099,0,14.666,6.566,14.666,14.666c0,8.1-6.568,14.666-14.666,14.666H302.75c-5.721,0-10.376,4.655-10.376,10.376
		s4.655,10.376,10.376,10.376h189.578c8.099,0,14.666,6.566,14.666,14.666C506.994,292.599,500.427,299.165,492.328,299.165z"></path>
    <path style="fill: rgb(7, 14, 47);" d="M256,512.001c-84.098,0-162.881-41.362-210.743-110.642c-11.431-16.53-20.895-34.41-28.127-53.139
		C9.427,328.298,4.259,307.432,1.769,286.21C0.595,276.249,0,266.084,0,256.001c0-7.684,0.339-15.385,1.009-22.89
		c1.882-21.2,6.395-42.061,13.414-62c6.528-18.587,15.251-36.465,25.926-53.129C87.732,44.102,168.348,0.001,256,0.001
		s168.266,44.102,215.646,117.973c10.679,16.671,19.402,34.549,25.934,53.145c7.015,19.93,11.528,40.791,13.412,61.997
		c0.669,7.499,1.009,15.2,1.009,22.885c0,10.083-0.595,20.25-1.769,30.215c-2.489,21.216-7.659,42.081-15.363,62.008
		c-7.23,18.724-16.695,36.604-28.128,53.139c-4.608,6.663-13.744,8.329-20.405,3.722c-6.663-4.607-8.329-13.742-3.722-20.405
		c10.118-14.634,18.494-30.457,24.896-47.029c6.815-17.63,11.388-36.086,13.591-54.859c1.041-8.838,1.568-17.849,1.568-26.791
		c0-6.817-0.301-13.643-0.892-20.283c-1.669-18.777-5.66-37.236-11.866-54.87c-5.783-16.466-13.506-32.291-22.957-47.045
		C404.998,68.39,333.612,29.333,256,29.333S107.002,68.39,65.044,133.81c-9.445,14.747-17.168,30.572-22.948,47.029
		c-6.208,17.642-10.2,36.1-11.868,54.872c-0.594,6.647-0.895,13.471-0.895,20.289c0,8.941,0.527,17.953,1.568,26.784
		c2.203,18.78,6.774,37.236,13.59,54.862c6.402,16.577,14.778,32.399,24.897,47.033c42.39,61.359,112.15,97.988,186.612,97.988
		c28.529,0,56.336-5.227,82.647-15.536c7.544-2.958,16.051,0.764,19.006,8.305c2.955,7.541-0.764,16.051-8.304,19.006
		C319.614,506.093,288.207,512.001,256,512.001z"></path>
  </g>
  <g transform="matrix(0.976561, 0, 0, 0.976561, 0, 0)"></g>
  <g transform="matrix(0.976561, 0, 0, 0.976561, 0, 0)"></g>
  <g transform="matrix(0.976561, 0, 0, 0.976561, 0, 0)"></g>
  <g transform="matrix(0.976561, 0, 0, 0.976561, 0, 0)"></g>
  <g transform="matrix(0.976561, 0, 0, 0.976561, 0, 0)"></g>
  <g transform="matrix(0.976561, 0, 0, 0.976561, 0, 0)"></g>
  <g transform="matrix(0.976561, 0, 0, 0.976561, 0, 0)"></g>
  <g transform="matrix(0.976561, 0, 0, 0.976561, 0, 0)"></g>
  <g transform="matrix(0.976561, 0, 0, 0.976561, 0, 0)"></g>
  <g transform="matrix(0.976561, 0, 0, 0.976561, 0, 0)"></g>
  <g transform="matrix(0.976561, 0, 0, 0.976561, 0, 0)"></g>
  <g transform="matrix(0.976561, 0, 0, 0.976561, 0, 0)"></g>
  <g transform="matrix(0.976561, 0, 0, 0.976561, 0, 0)"></g>
  <g transform="matrix(0.976561, 0, 0, 0.976561, 0, 0)"></g>
  <g transform="matrix(0.976561, 0, 0, 0.976561, 0, 0)"></g>
</svg>
