<svg xmlns="http://www.w3.org/2000/svg" viewBox="0 0 500 500"><path d="M33.348 334.896h170.997c13.506 0 24.456 10.949 24.456 24.456 0 13.506-10.949 24.456-24.456 24.456H59.238" style="fill:#63d4a3"/><path d="M204.345 398.131H59.238c-7.909 0-14.322-6.412-14.322-14.322 0-7.91 6.414-14.322 14.322-14.322h145.106c5.587 0 10.133-4.546 10.133-10.133 0-5.587-4.546-10.135-10.133-10.135H33.348c-7.91 0-14.323-6.412-14.323-14.322 0-7.91 6.414-14.322 14.323-14.322h170.997c21.384 0 38.779 17.396 38.779 38.778 0 21.382-17.395 38.778-38.779 38.778Z" style="fill:#404145"/><path d="M18.511 228.919h104.313c13.506 0 24.456 10.949 24.456 24.456 0 13.505-10.949 24.456-24.456 24.456H19.211" style="fill:#d46366"/><path d="M122.824 292.153H19.211c-7.909 0-14.322-6.412-14.322-14.322 0-7.911 6.414-14.323 14.322-14.323h103.613c5.587 0 10.133-4.546 10.133-10.132 0-5.587-4.546-10.133-10.133-10.133H18.511c-7.909 0-14.323-6.412-14.323-14.323 0-7.91 6.415-14.322 14.323-14.322h104.313c21.384 0 38.778 17.397 38.778 38.779 0 21.381-17.394 38.776-38.778 38.776Z" style="fill:#404145"/><path d="M54.722 122.941h149.623c13.506 0 24.456 10.949 24.456 24.456 0 13.506-10.949 24.456-24.456 24.456H30.852" style="fill:#63d4a3"/><path d="M204.345 186.176H30.852c-7.909 0-14.322-6.412-14.322-14.322 0-7.91 6.414-14.322 14.322-14.322h173.493c5.587 0 10.133-4.546 10.133-10.135 0-5.589-4.546-10.133-10.133-10.133H54.722c-7.91 0-14.323-6.412-14.323-14.322 0-7.91 6.414-14.322 14.323-14.322h149.623c21.384 0 38.779 17.396 38.779 38.778 0 21.382-17.395 38.778-38.779 38.778Z" style="fill:#404145"/><path d="M440.598 383.809h-63.425c-13.506 0-24.456-10.949-24.456-24.456 0-13.506 10.949-24.456 24.456-24.456h89.478" style="fill:#63bad4"/><path d="M440.598 398.131h-63.423c-21.384 0-38.778-17.396-38.778-38.778 0-21.384 17.396-38.779 38.778-38.779h89.477c7.91 0 14.323 6.412 14.323 14.322 0 7.91-6.414 14.322-14.323 14.322h-89.477c-5.587 0-10.133 4.546-10.133 10.133 0 5.587 4.546 10.135 10.133 10.135h63.423c7.909 0 14.322 6.412 14.322 14.322 0 7.911-6.413 14.323-14.322 14.323Z" style="fill:#404145"/><path d="M469.146 171.854h-91.973c-13.506 0-24.456-10.949-24.456-24.456 0-13.506 10.949-24.456 24.456-24.456h68.103" style="fill:#d46366"/><path d="M469.147 186.176h-91.973c-21.384 0-38.778-17.396-38.778-38.779 0-21.382 17.396-38.778 38.778-38.778h68.103c7.909 0 14.322 6.412 14.322 14.322 0 7.91-6.414 14.322-14.322 14.322h-68.103c-5.587 0-10.133 4.546-10.133 10.133 0 5.587 4.546 10.135 10.133 10.135h91.973c7.909 0 14.322 6.412 14.322 14.322 0 7.91-6.413 14.323-14.322 14.323Z" style="fill:#404145"/><path d="M480.787 277.832H295.654c-13.506 0-24.456-10.95-24.456-24.456s10.949-24.456 24.456-24.456h185.834" style="fill:#63bad4"/><g><path d="M492.328 299.165H302.75c-21.897 0-39.709-17.814-39.709-39.709s17.814-39.709 39.709-39.709h190.295c8.099 0 14.666 6.566 14.666 14.666 0 8.1-6.568 14.666-14.666 14.666H302.75c-5.721 0-10.376 4.655-10.376 10.376s4.655 10.376 10.376 10.376h189.578c8.099 0 14.666 6.566 14.666 14.666 0 8.102-6.567 14.668-14.666 14.668z" style="fill:#404145" transform="scale(.97656)"/><path d="M256 512.001c-84.098 0-162.881-41.362-210.743-110.642-11.431-16.53-20.895-34.41-28.127-53.139-7.703-19.922-12.871-40.788-15.361-62.01C.595 276.249 0 266.084 0 256.001c0-7.684.339-15.385 1.009-22.89 1.882-21.2 6.395-42.061 13.414-62 6.528-18.587 15.251-36.465 25.926-53.129C87.732 44.102 168.348.001 256 .001s168.266 44.102 215.646 117.973c10.679 16.671 19.402 34.549 25.934 53.145 7.015 19.93 11.528 40.791 13.412 61.997.669 7.499 1.009 15.2 1.009 22.885 0 10.083-.595 20.25-1.769 30.215-2.489 21.216-7.659 42.081-15.363 62.008-7.23 18.724-16.695 36.604-28.128 53.139-4.608 6.663-13.744 8.329-20.405 3.722-6.663-4.607-8.329-13.742-3.722-20.405 10.118-14.634 18.494-30.457 24.896-47.029 6.815-17.63 11.388-36.086 13.591-54.859 1.041-8.838 1.568-17.849 1.568-26.791 0-6.817-.301-13.643-.892-20.283-1.669-18.777-5.66-37.236-11.866-54.87-5.783-16.466-13.506-32.291-22.957-47.045C404.998 68.39 333.612 29.333 256 29.333S107.002 68.39 65.044 133.81c-9.445 14.747-17.168 30.572-22.948 47.029-6.208 17.642-10.2 36.1-11.868 54.872-.594 6.647-.895 13.471-.895 20.289 0 8.941.527 17.953 1.568 26.784 2.203 18.78 6.774 37.236 13.59 54.862 6.402 16.577 14.778 32.399 24.897 47.033 42.39 61.359 112.15 97.988 186.612 97.988 28.529 0 56.336-5.227 82.647-15.536 7.544-2.958 16.051.764 19.006 8.305 2.955 7.541-.764 16.051-8.304 19.006-29.735 11.651-61.142 17.559-93.349 17.559z" style="fill:#404145" transform="scale(.97656)"/></g></svg>